#tb 0: 1001/15000
#media_type 0: video
#codec_id 0: vp3
#dimensions 0: 160x112
#sar 0: 0/1
#tb 1: 1/30000000
#media_type 1: audio
#codec_id 1: mp3
#sample_rate 1: 11025
#channel_layout 1: 4
0,          0,          0,        1,       12, 0x1396035f
0,          1,          1,        1,       24, 0x8ab80ac7, F=0x0
0,          2,          2,        1,      208, 0x1de1603e, F=0x0
1,    4173848,    4173848,  1567346,      104, 0x8ae85dc9
1,    5741194,    5741194,  1567346,      105, 0xb7033847
0,          3,          3,        1,      364, 0xffb4b341, F=0x0
1,    7308540,    7308540,  1567346,      104, 0x5f853482
0,          4,          4,        1,      456, 0x7a4deaeb, F=0x0
1,    8875886,    8875886,  1567346,      105, 0xfcb731fd
0,          5,          5,        1,      432, 0xf4ddd813, F=0x0
1,   10443232,   10443232,  1567346,      104, 0x4f8232bb
1,   12010578,   12010578,  1567346,      105, 0x2f543039
0,          6,          6,        1,      572, 0xc84c21ff, F=0x0
1,   13577924,   13577924,  1567346,      104, 0xe4cc34a1
0,          7,          7,        1,      500, 0x0e6bf9f4, F=0x0
1,   15145270,   15145270,  1567346,      105, 0xea663711
0,          8,          8,        1,      508, 0x2d6efe2a, F=0x0
1,   16712616,   16712616,  1567346,      104, 0x3c583098
0,          9,          9,        1,      436, 0x7d07d3c5, F=0x0
1,   18279962,   18279962,  1567346,      105, 0xbe6c33ff
1,   19847308,   19847308,  1567346,      104, 0x56de2d7a
0,         10,         10,        1,      620, 0xa9313342, F=0x0
1,   21414654,   21414654,  1567346,      105, 0x4e80385d
0,         11,         11,        1,     1384, 0x9b97c579
1,   22982000,   22982000,  1567346,      104, 0x34eb340d
0,         12,         12,        1,      760, 0xd1aa8183, F=0x0
1,   24549346,   24549346,  1567346,      105, 0x87e82f74
0,         13,         13,        1,      836, 0x261da980, F=0x0
1,   26116692,   26116692,  1567346,      104, 0xa546377d
1,   27684038,   27684038,  1567346,      105, 0x92bd349d
0,         14,         14,        1,      860, 0x52f0afa0, F=0x0
1,   29251384,   29251384,  1567346,      104, 0xdba53f3d
0,         15,         15,        1,      696, 0x63845855, F=0x0
1,   30818730,   30818730,  1567346,      105, 0xd3c3384e
0,         16,         16,        1,      460, 0x2916e7be, F=0x0
1,   32386076,   32386076,  1567346,      104, 0xdf7d30ce
1,   33953422,   33953422,  1567346,      105, 0xae20344e
0,         17,         17,        1,      328, 0xab8caaca, F=0x0
1,   35520768,   35520768,  1567346,      104, 0xe4cc33b7
0,         18,         18,        1,      396, 0xc775bc8e, F=0x0
1,   37088114,   37088114,  1567346,      105, 0xda993806
0,         19,         19,        1,      344, 0x114ea25a, F=0x0
1,   38655460,   38655460,  1567346,      104, 0xd6d12edd
1,   40222806,   40222806,  1567346,      105, 0x6b9c2ed5
1,   41790152,   41790152,  1567346,      104, 0xce6c3b04
0,         21,         21,        1,      532, 0xd5650f54, F=0x0
1,   43357498,   43357498,  1567346,      105, 0x31db399e
1,   44924844,   44924844,  1567346,      104, 0xd50b347a
0,         23,         23,        1,      476, 0x77f1f3a7, F=0x0
1,   46492190,   46492190,  1567346,      105, 0xe87734d6
1,   48059536,   48059536,  1567346,      104, 0x21873412
0,         25,         25,        1,      976, 0x2f7cf7ae
1,   50140000,   50140000,  1567346,      105, 0x29c03514
1,   51707346,   51707346,  1567346,      104, 0x91a5347a
1,   53274692,   53274692,  1567346,      105, 0xdbbf3696
0,         27,         27,        1,      104, 0x8fbf2f65, F=0x0
1,   54842038,   54842038,  1567346,      104, 0x3b463afc
1,   56409384,   56409384,  1567346,      105, 0xddf53845
1,   57976730,   57976730,  1567346,      104, 0x94c23d1a
0,         29,         29,        1,      652, 0xa9244ac0, F=0x0
1,   59544076,   59544076,  1567346,      105, 0xc0fd36c4
1,   61111422,   61111422,  1567346,      104, 0x36d535e0
0,         31,         31,        1,      152, 0x97804cc1, F=0x0
1,   62678768,   62678768,  1567346,      105, 0xe81a35da
1,   64246114,   64246114,  1567346,      104, 0x2b4e3699
1,   65813460,   65813460,  1567346,      105, 0x3978392c
0,         33,         33,        1,      156, 0xca434d31, F=0x0
1,   67380806,   67380806,  1567346,      104, 0xca903459
0,         34,         34,        1,      196, 0x1ff16161, F=0x0
1,   68948152,   68948152,  1567346,      105, 0xedc4374a
0,         35,         35,        1,      176, 0x9b455230, F=0x0
1,   70515498,   70515498,  1567346,      104, 0x0b3938d2
0,         36,         36,        1,      156, 0xbbbf4bf3, F=0x0
1,   72082844,   72082844,  1567346,      105, 0xb2653246
1,   73650190,   73650190,  1567346,      104, 0x76333479
0,         37,         37,        1,      220, 0x77a97152, F=0x0
1,   75217536,   75217536,  1567346,      105, 0x779138c4
0,         38,         38,        1,      204, 0x667d5ecf, F=0x0
1,   76784882,   76784882,  1567346,      104, 0xfe142f55
0,         39,         39,        1,      232, 0x3a266ccd, F=0x0
1,   78352228,   78352228,  1567346,      105, 0x39aa3410
1,   79919574,   79919574,  1567346,      104, 0x520f330d
0,         40,         40,        1,      308, 0x844a95b7, F=0x0
1,   81486920,   81486920,  1567346,      104, 0x1aad37b0
0,         41,         41,        1,      384, 0x71d2c695, F=0x0
1,   83054266,   83054266,  1567346,      105, 0x164038eb
1,   84621612,   84621612,  1567346,      104, 0x21d434bd
0,         43,         43,        1,      520, 0x4f9d012a, F=0x0
1,   86188958,   86188958,  1567346,      105, 0x9c1236d4
1,   87756304,   87756304,  1567346,      104, 0x6aa933c3
1,   89323650,   89323650,  1567346,      105, 0xec5c371e
0,         45,         45,        1,      648, 0xabd13b29, F=0x0
1,   90890996,   90890996,  1567346,      104, 0xedb33251
1,   92458342,   92458342,  1567346,      105, 0x4f953476
1,   94025688,   94025688,  1567346,      104, 0x7da13400
0,         47,         47,        1,      604, 0x006b328f, F=0x0
1,   95593034,   95593034,  1567346,      105, 0x57a83aaa
1,   97160380,   97160380,  1567346,      104, 0x8b822f2f
0,         49,         49,        1,      492, 0xa150fac1, F=0x0
1,   98727726,   98727726,  1567346,      105, 0x3b31341a
1,  100295072,  100295072,  1567346,      104, 0x74a4316d
1,  101862418,  101862418,  1567346,      105, 0x05013469
0,         51,         51,        1,      456, 0xd3e9e52c, F=0x0
1,  103429764,  103429764,  1567346,      104, 0xcc8932cb
1,  104997110,  104997110,  1567346,      105, 0xd9233422
0,         53,         53,        1,      340, 0x7229a1b7, F=0x0
1,  106564456,  106564456,  1567346,      104, 0x5c603350
1,  108131802,  108131802,  1567346,      105, 0x76e631bc
1,  109699148,  109699148,  1567346,      104, 0x657e3b35
0,         55,         55,        1,      280, 0x48948b60, F=0x0
1,  111266494,  111266494,  1567346,      105, 0x9d283226
1,  112833840,  112833840,  1567346,      104, 0x574936ef
0,         57,         57,        1,      304, 0x3ae68dcf, F=0x0
1,  114401186,  114401186,  1567346,      105, 0x1b923555
1,  115968532,  115968532,  1567346,      104, 0x2a9f3583
1,  117535878,  117535878,  1567346,      105, 0xb8cd306f
0,         59,         59,        1,      324, 0x005da2ab, F=0x0
1,  119103224,  119103224,  1567346,      104, 0xa21d3475
1,  120670570,  120670570,  1567346,      105, 0x651539ea
0,         61,         61,        1,      348, 0x3230a873, F=0x0
1,  122237916,  122237916,  1567346,      104, 0x7b7235b8
1,  123805262,  123805262,  1567346,      105, 0x2bbb337a
1,  125372608,  125372608,  1567346,      104, 0x26c332eb
0,         63,         63,        1,      336, 0x8655ad2d, F=0x0
1,  126939954,  126939954,  1567346,      105, 0x990838d8
1,  128507300,  128507300,  1567346,      104, 0x4dc63ad4
1,  130074646,  130074646,  1567346,      105, 0xfb8e3418
0,         65,         65,        1,      380, 0x742ebc44, F=0x0
1,  131641992,  131641992,  1567346,      104, 0x1882388e
1,  133209338,  133209338,  1567346,      105, 0xe6b534cc
0,         67,         67,        1,      340, 0xfc1aa74e, F=0x0
1,  134776684,  134776684,  1567346,      104, 0x60fe35d0
1,  136344030,  136344030,  1567346,      105, 0x5164354a
1,  137911376,  137911376,  1567346,      104, 0x92ee3115
0,         69,         69,        1,      332, 0x3cfba56c, F=0x0
1,  139478722,  139478722,  1567346,      105, 0x9b32327e
1,  141046068,  141046068,  1567346,      104, 0x9b9e394a
0,         71,         71,        1,      332, 0xc024ad4c, F=0x0
1,  142613414,  142613414,  1567346,      105, 0xce3c337f
1,  144180760,  144180760,  1567346,      104, 0x7a4e33c5
0,         73,         73,        1,     3432, 0xcdfcd1c9
1,  146956000,  146956000,  1567346,      105, 0x0e3d34eb
1,  148523346,  148523346,  1567346,      104, 0xd23e338e
1,  150090692,  150090692,  1567346,      105, 0x4abf340c
0,         75,         75,        1,      792, 0xe7df949f, F=0x0
1,  151658038,  151658038,  1567346,      104, 0xe7522e15
1,  153225384,  153225384,  1567346,      105, 0x995037ba
0,         77,         77,        1,      912, 0xbc61d549, F=0x0
1,  154792730,  154792730,  1567346,      104, 0x5ef12e9b
1,  156360076,  156360076,  1567346,      105, 0x5c3b3166
1,  157927422,  157927422,  1567346,      104, 0xfc38314b
0,         79,         79,        1,      956, 0x809bdff0, F=0x0
1,  159494768,  159494768,  1567346,      104, 0x5e3636e4
1,  161062114,  161062114,  1567346,      105, 0xae7b3345
0,         81,         81,        1,      652, 0x88d3484f, F=0x0
1,  162629460,  162629460,  1567346,      104, 0x635c317a
1,  164196806,  164196806,  1567346,      105, 0xa90c361a
1,  165764152,  165764152,  1567346,      104, 0x8f563594
0,         83,         83,        1,     1284, 0xecc37164
1,  167156000,  167156000,  1567346,      105, 0x028e3985
1,  168723346,  168723346,  1567346,      104, 0x4fd135f6
0,         85,         85,        1,      428, 0x4794e174, F=0x0
1,  170290692,  170290692,  1567346,      105, 0xaaf539ac
1,  171858038,  171858038,  1567346,      104, 0x668b3265
1,  173425384,  173425384,  1567346,      105, 0x74ad3b4b
0,         87,         87,        1,      460, 0x7253d94a, F=0x0
1,  174992730,  174992730,  1567346,      104, 0xbde5332f
1,  176560076,  176560076,  1567346,      105, 0xdc3631e7
1,  178127422,  178127422,  1567346,      104, 0x3e363a1e
0,         89,         89,        1,       24, 0x664206ba, F=0x0
1,  179694768,  179694768,  1567346,      105, 0x48b63926
